PathFileType	4	(X/Y/Z)	6_coords_data.trc
DataRate	CameraRate	NumFrames	NumMarkers	Units	OrigDataRate	OrigDataStartFrame	OrigNumFrames
30.0	30.0	7	21	m	30.0	21	60
Frame#	Time	THUMB_TIP	THUMB_IP	THUMB_MCP	THUMB_CMC	INDEX_TIP	INDEX_DIP	INDEX_PIP	INDEX_MCP	MIDDLE_TIP	MIDDLE_DIP	MIDDLE_PIP	MIDDLE_MCP	RING_TIP	RING_DIP	RING_PIP	RING_MCP	PINKY_TIP	PINKY_DIP	PINKY_PIP	PINKY_MCP	WRIST
X1	Y1	Z1	X2	Y2	Z2	X3	Y3	Z3	X4	Y4	Z4	X5	Y5	Z5	X6	Y6	Z6	X7	Y7	Z7	X8	Y8	Z8	X9	Y9	Z9	X10	Y10	Z10	X11	Y11	Z11	X12	Y12	Z12	X13	Y13	Z13	X14	Y14	Z14	X15	Y15	Z15	X16	Y16	Z16	X17	Y17	Z17	X18	Y18	Z18	X19	Y19	Z19	X20	Y20	Z20	X21	Y21	Z21
19	0.6666666666666637	0.5364162933541139	-0.02409929231744412	-0.10905315078209232	0.5205653437508891	-0.025942238126540174	-0.125586479165112	0.4907729169403915	-0.01984712521216414	-0.11894713406923474	0.4747896338047547	-0.018303702836383273	-0.07732931928306402	0.5637068071765623	0.04739832382151754	-0.1587837730208952	0.549677850677053	0.04497476459033256	-0.14758936637347467	0.5308336537200236	0.03875540636828434	-0.13215480588894757	0.5018121266450042	0.033069375524429234	-0.10151078341348521	0.49723284539166956	-0.027316193573875047	-0.10016372108997806	0.5129053868171516	-0.019610154436365157	-0.1049583437109688	0.5316735578834888	0.0024727487354274658	-0.1080422847496291	0.5134607532818839	0.03328474513432933	-0.08130163128981605	0.5086739155409488	-0.028024620446573056	-0.08858564853544998	0.5237328046412493	-0.01954093011401925	-0.0937097930890492	0.5417413917168235	-0.0023477770112909635	-0.09319379219019536	0.5262380467875304	0.02312690569301723	-0.06589163712657115	0.5976967185029052	0.018227631287303647	-0.08768356034273012	0.5824086413075806	0.01319268459235079	-0.08185912840057619	0.5631691814903641	0.00859524411190038	-0.07482217266883909	0.5308701876680846	0.003324869983337475	-0.05966032563052212	0.4622830810018609	-0.023011742144276814	-0.05198982011943096
20	0.6999999999999968	0.5363874015213146	-0.024149628114991994	-0.10912904173671284	0.5205059514531225	-0.025923544871713	-0.12564063654374913	0.4907109934349427	-0.019876112345689423	-0.11896912722890157	0.4747888060803563	-0.018300380020743523	-0.07732911020818495	0.5637890820894869	0.04673009832089503	-0.1588743749742533	0.5497429979923588	0.04449089702847897	-0.1476630637615339	0.5308552664682893	0.03847535678120906	-0.1322009582642821	0.5018010465500132	0.03305093846106577	-0.10154049374026439	0.49736779307610546	-0.027384168548117094	-0.10019641040200838	0.5129682226006997	-0.01956270639702007	-0.10503906757210868	0.5317312311444747	0.0025287217942433493	-0.1080932222598229	0.513456691253668	0.033277726087505344	-0.08132219598602716	0.5087567472352329	-0.02797177525833927	-0.08856083339752027	0.5237995035103638	-0.01949205258616704	-0.09373865022028127	0.5418046270200738	-0.0022966212686956755	-0.09317950068195618	0.5262338308471286	0.023137016567702395	-0.06587746400064709	0.5976366265903659	0.018261128092215584	-0.08778307647021963	0.5823580112141189	0.01322241698041049	-0.08193711183497929	0.5631335519214329	0.008623109190802003	-0.07486049175472168	0.5308693603051011	0.003335649457766765	-0.059630647372188955	0.4622830810018609	-0.023011742144277036	-0.051989820119430985
21	0.7333333333333302	0.5362676512409418	-0.024200262354780344	-0.10921909807742519	0.5203659328224136	-0.02592268512010465	-0.1257166315644449	0.490578903522386	-0.019862313697866174	-0.11902150022116212	0.4747691387484775	-0.018297437929375215	-0.07733826016448139	0.5638223151015362	0.046015149405129074	-0.15900597294582725	0.5497652896188248	0.0439700517288647	-0.14777131184399872	0.530830291083337	0.038179281991509995	-0.13228122955532073	0.5017615909970876	0.03303886785059318	-0.10158557983495237	0.4974117575553057	-0.02734147494536754	-0.10025081504520594	0.5130087343861307	-0.019521123370912496	-0.1051063701103481	0.5317447247518472	0.0025916528638350034	-0.10817187858493632	0.5134433737682667	0.03327720476975249	-0.08134641722068311	0.5087679609676308	-0.027885659186123846	-0.08860662298247729	0.5238143035352709	-0.0194516173483128	-0.0938482366286052	0.5418299994576571	-0.002269989352831514	-0.0932107894880416	0.5262270246141147	0.023138533232864966	-0.06590373929868704	0.5975614784036389	0.01828722277242767	-0.08794069734540738	0.5822995307183231	0.013236729284758386	-0.08206145688581634	0.5630918818171873	0.008632864861520373	-0.07494228031382849	0.5308631473478655	0.0033503077482526233	-0.05963585304124064	0.46228308100186094	-0.023011742144277036	-0.051989820119430985
22	0.7666666666666633	0.5361484644545356	-0.024268394895125445	-0.10955840508141881	0.5201204445139171	-0.025885510696364467	-0.1259439936661636	0.49035703474530673	-0.019855301318207008	-0.1191178663745456	0.47470398409797093	-0.018319978122067537	-0.07737442631367691	0.5637526205199994	0.04525741345572332	-0.15921129755396307	0.549693271896652	0.043419779741545206	-0.14794374153592196	0.5307210799089631	0.03786349369930442	-0.1324133374974214	0.5016837323761963	0.03304976387978553	-0.10163515451846689	0.4974920454563132	-0.02738273998028551	-0.10032840504063772	0.5130356908471823	-0.019503240857358772	-0.10525877840730186	0.5317100977976392	0.0026635500096348075	-0.10830991880192295	0.5134090066652681	0.033278505421707516	-0.0814037394097934	0.5087434007731796	-0.02786440284984426	-0.08877455133714049	0.5237865545621996	-0.019419546351265637	-0.09400789852592006	0.5417971976004166	-0.0022354620712226048	-0.09329799444345241	0.5262192450653858	0.02313731753952386	-0.06594346495305864	0.5974553418588546	0.018315852977564995	-0.08819188161229635	0.5822153984615219	0.013245396903824425	-0.08227287827977814	0.5630382332123932	0.008620707153778828	-0.07508534763821312	0.5308550603628619	0.0033596713762238384	-0.05967598882986305	0.4622830810018609	-0.023011742144277036	-0.05198982011943101
23	0.7999999999999965	0.5360270537586841	-0.024191936453519913	-0.10996093160915349	0.5198317419083702	-0.025681529466001107	-0.12619339866528068	0.4900917751623157	-0.019699876370162794	-0.11922387901292172	0.47462752572049316	-0.018288021666668097	-0.07740577700556953	0.5636438284677562	0.04457896665094263	-0.15934212741670034	0.5495817208194752	0.04297036667289389	-0.14804303300171384	0.530569907888617	0.037671410915215975	-0.13247120363069184	0.5015471095968014	0.033145005221875246	-0.10163575447210349	0.4974618360561083	-0.027296165948399675	-0.10049622496861244	0.5129802260271916	-0.01937801645042403	-0.1054442024577581	0.5316194543549458	0.002824965256846168	-0.10844692133445355	0.5133474158341418	0.03333512642768599	-0.08140231753584629	0.5087840800813108	-0.02788162191996224	-0.08898741065886101	0.52376696063698	-0.019293535467101774	-0.0941602301350018	0.5417566462939296	-0.0020884581333227015	-0.09342776655035523	0.5261875194394212	0.023174258757971855	-0.06596655284340977	0.5972909934629764	0.018447617935548943	-0.08849972227978775	0.5820820120237942	0.013349981308191206	-0.08252469220471453	0.5629401532947389	0.008693233734071604	-0.07526411609617994	0.5308249138369379	0.00342637043916616	-0.05971564361169199	0.4622830810018609	-0.023011742144277036	-0.051989820119430985
24	0.8333333333333297	0.5358636794599727	-0.02402934145197988	-0.1103437812940832	0.5194985273811361	-0.025374201569658972	-0.12641777111305552	0.48976637433407866	-0.01945674693555577	-0.11936066080927743	0.4745146049352334	-0.01827304086546344	-0.07745753001760419	0.5634720981773925	0.04384202797683545	-0.15946248496971988	0.5494057874035452	0.04251726178943105	-0.14813182321665996	0.5303437008620507	0.03753305960060083	-0.1325175855399292	0.5013614253719458	0.03330423742047517	-0.10160187975169677	0.4973913173195878	-0.027160055863339805	-0.10062526928604357	0.5128869311034303	-0.019201105254330608	-0.10557916256964789	0.531480118311209	0.003042694005428892	-0.10856518566869014	0.5132450765251029	0.03344320923591537	-0.08137254243968572	0.5086810705715679	-0.027636570532545424	-0.0890255980878561	0.5236198302121327	-0.019045884394719437	-0.09432027202331184	0.5416682331921354	-0.0019032426478724496	-0.09356863194276055	0.5261381372321761	0.02323973212563979	-0.065975738419011	0.5970855701774582	0.018669527532187424	-0.08885295464013615	0.5819082205541707	0.013547701220841257	-0.08281847424420347	0.5628169183172715	0.0088384655349808	-0.07545931008280657	0.530789378134235	0.0035075289641675056	-0.059752584259072594	0.4622830810018609	-0.023011742144276814	-0.051989820119430985
25	0.8666666666666629	0.5359008284783138	-0.023729413287361556	-0.11071995437649523	0.5193084230532081	-0.024934220191938916	-0.1265705229004192	0.48957685845204413	-0.01910568158825665	-0.11943734660144834	0.47443885406165304	-0.018228481736323188	-0.07748545339629884	0.5633900305515913	0.04296150144043065	-0.159383304763565	0.5493012102802008	0.0419969883888337	-0.14804421935363188	0.5301458328769564	0.03742246651753367	-0.13241875618647217	0.5011238442085881	0.0335649020609976	-0.10149175400073196	0.49743805586327655	-0.026924035078851327	-0.10075021632764797	0.5128835489841139	-0.018881025099436455	-0.10572482512886999	0.531407216766034	0.0034380031372553965	-0.10857864020255795	0.5130842746481574	0.03365569082549824	-0.08124168602107024	0.5087249091655638	-0.027451211175242296	-0.08915715797305857	0.5235798068730068	-0.01868238110264664	-0.09439544330886757	0.541637118861396	-0.0015526510254844084	-0.09356730670326541	0.5260156608909156	0.023435461133542335	-0.06588545099226911	0.5968323011661175	0.019100544463832803	-0.08904310252897557	0.5816905582137764	0.013929016685101714	-0.08296174406239631	0.5626576013774424	0.009121051192413798	-0.0755158028265705	0.5307185080660183	0.003718264492526213	-0.059654287598835676	0.46228308100186083	-0.023011742144277036	-0.05198982011943096
